<svg width="1280" height="720" xmlns="http://www.w3.org/2000/svg" xmlns:xlink="http://www.w3.org/1999/xlink" overflow="hidden"><defs><clipPath id="clip0"><rect x="0" y="0" width="1280" height="720"/></clipPath><clipPath id="clip1"><rect x="149" y="57" width="40" height="39"/></clipPath><clipPath id="clip2"><rect x="149" y="57" width="40" height="39"/></clipPath><clipPath id="clip3"><rect x="149" y="57" width="40" height="39"/></clipPath><clipPath id="clip4"><rect x="206" y="399" width="28" height="28"/></clipPath><clipPath id="clip5"><rect x="206" y="399" width="28" height="28"/></clipPath><clipPath id="clip6"><rect x="206" y="399" width="28" height="28"/></clipPath><clipPath id="clip7"><rect x="820" y="155" width="44" height="44"/></clipPath><clipPath id="clip8"><rect x="820" y="155" width="44" height="44"/></clipPath><clipPath id="clip9"><rect x="820" y="155" width="44" height="44"/></clipPath></defs><g clip-path="url(#clip0)"><rect x="0" y="0" width="1280" height="720" fill="#FFFFFF"/><rect x="272" y="562" width="958" height="108" stroke="#A6A6A6" stroke-width="2" stroke-miterlimit="8" fill="none"/><text fill="#BFBFBF" font-family="Calibri,Calibri_MSFontService,sans-serif" font-weight="400" font-size="43" transform="translate(666.063 630)">Hardware</text><rect x="272" y="50" width="958" height="493" stroke="#000000" stroke-width="2" stroke-miterlimit="8" fill="none"/><rect x="290" y="474" width="922" height="52" stroke="#843C0C" stroke-width="2" stroke-miterlimit="8" fill="none"/><text fill="#843C0C" font-family="Calibri,Calibri_MSFontService,sans-serif" font-weight="400" font-size="27" transform="translate(678.5 509)">PERIPHERALS</text><rect x="290" y="388" width="922" height="53" stroke="#7030A0" stroke-width="2" stroke-miterlimit="8" fill="none"/><text fill="#7030A0" font-family="Calibri,Calibri_MSFontService,sans-serif" font-weight="400" font-size="27" transform="translate(657.067 424)">MCAL / MCU Libs</text><rect x="1017" y="217" width="195" height="101" stroke="#1F4E79" stroke-width="2" stroke-miterlimit="8" fill="none"/><text fill="#1F4E79" font-family="Calibri,Calibri_MSFontService,sans-serif" font-weight="400" font-size="27" transform="translate(1081.53 277)">Driver</text><rect x="290" y="217" width="137" height="101" stroke="#000000" stroke-width="2" stroke-miterlimit="8" fill="none"/><text font-family="Calibri,Calibri_MSFontService,sans-serif" font-weight="400" font-size="27" transform="translate(343.559 277)">OS</text><rect x="290" y="69" width="922" height="69" stroke="#A50021" stroke-width="2" stroke-miterlimit="8" fill="none"/><text fill="#CC0000" font-family="Calibri,Calibri_MSFontService,sans-serif" font-weight="400" font-size="27" transform="translate(610.743 112)">Features / Application SW</text><rect x="290" y="151" width="922" height="53" stroke="#7F6000" stroke-width="2" stroke-miterlimit="8" fill="none"/><text fill="#7F6000" font-family="Calibri,Calibri_MSFontService,sans-serif" font-weight="400" font-size="27" transform="translate(685.893 187)">Middleware</text><rect x="445" y="217" width="137" height="101" stroke="#000000" stroke-width="2" stroke-miterlimit="8" fill="none"/><text font-family="Calibri,Calibri_MSFontService,sans-serif" font-weight="400" font-size="27" transform="translate(486.342 261)">COM<tspan font-size="27" x="-1.45334" y="32">Stack</tspan></text><rect x="60.5001" y="330.5" width="1161" height="119" stroke="#9933FF" stroke-miterlimit="8" stroke-dasharray="8 3 1 3 1 3" fill="none"/><text fill="#7030A0" font-family="Calibri,Calibri_MSFontService,sans-serif" font-weight="400" font-size="19" transform="translate(70.0443 352)">Platform</text><rect x="50.5001" y="465.5" width="1187" height="69" stroke="#C55A11" stroke-miterlimit="8" stroke-dasharray="8 3 1 3 1 3" fill="none"/><text fill="#C55A11" font-family="Calibri,Calibri_MSFontService,sans-serif" font-weight="400" font-size="19" transform="translate(60.0117 487)">Semiconductor</text><rect x="290" y="341" width="137" height="36" stroke="#7030A0" stroke-width="2" stroke-miterlimit="8" fill="none"/><text fill="#7030A0" font-family="Calibri,Calibri_MSFontService,sans-serif" font-weight="400" font-size="21" transform="translate(330.752 366)">Kernel</text><rect x="50.5001" y="553.5" width="1187" height="125" stroke="#000000" stroke-miterlimit="8" stroke-dasharray="8 3 1 3 1 3" fill="none"/><text font-family="Calibri,Calibri_MSFontService,sans-serif" font-weight="400" font-size="19" transform="translate(60.0117 575)">PCB<tspan font-size="13" x="0" y="18">Printed </tspan><tspan font-size="13" x="42.6667" y="18">Curcuit</tspan><tspan font-size="13" x="84.6667" y="18">Board</tspan></text><rect x="76" y="388" width="179" height="51" stroke="#7030A0" stroke-width="2" stroke-miterlimit="8" fill="none"/><text fill="#7030A0" font-family="Calibri,Calibri_MSFontService,sans-serif" font-weight="400" font-size="15" transform="translate(132.071 410)">Compiler &amp;<tspan font-size="15" x="4.83333" y="17">Toolchain </tspan></text><g clip-path="url(#clip1)"><g clip-path="url(#clip2)"><g clip-path="url(#clip3)"><path d="M24.0906 15.1531C22.3844 15.1531 21.0437 13.7719 21.0437 12.1062 21.0437 10.4406 22.425 9.05937 24.0906 9.05937 25.7969 9.05937 27.1375 10.4406 27.1375 12.1062 27.1375 13.7719 25.7563 15.1531 24.0906 15.1531ZM30.9562 10.1969C30.7938 9.62813 30.5906 9.1 30.3062 8.6125L30.9562 6.70312 29.4937 5.24062 27.5844 5.89062C27.0969 5.60625 26.5688 5.40313 26 5.24062L25.1062 3.45312 23.075 3.45312 22.1812 5.24062C21.6125 5.40313 21.0844 5.60625 20.5969 5.89062L18.6875 5.24062 17.225 6.70312 17.875 8.6125C17.5906 9.1 17.3875 9.62813 17.225 10.1969L15.4375 11.0906 15.4375 13.1219 17.225 14.0156C17.3875 14.5844 17.5906 15.1125 17.875 15.6L17.225 17.5094 18.6469 18.9312 20.5562 18.2812C21.0437 18.5656 21.5719 18.7688 22.1406 18.9312L23.0344 20.7188 25.0656 20.7188 25.9594 18.9312C26.5281 18.7688 27.0562 18.5656 27.5438 18.2812L29.4531 18.9312 30.9156 17.5094 30.2656 15.6C30.55 15.1125 30.7938 14.5437 30.9562 14.0156L32.7437 13.1219 32.7437 11.0906 30.9562 10.1969Z" transform="matrix(1.02564 0 0 1 149 57)"/><path d="M14.9094 29.9406C13.2031 29.9406 11.8625 28.5594 11.8625 26.8937 11.8625 25.1875 13.2437 23.8469 14.9094 23.8469 16.6156 23.8469 17.9563 25.2281 17.9563 26.8937 17.9563 28.5594 16.6156 29.9406 14.9094 29.9406L14.9094 29.9406ZM21.125 23.4 21.775 21.4906 20.3125 20.0281 18.4031 20.6781C17.9156 20.3938 17.3469 20.1906 16.8188 20.0281L15.925 18.2406 13.8938 18.2406 13 20.0281C12.4313 20.1906 11.9031 20.3938 11.4156 20.6781L9.50625 20.0281 8.08437 21.45 8.69375 23.3594C8.40938 23.8469 8.20625 24.4156 8.04375 24.9438L6.25625 25.8375 6.25625 27.8687 8.04375 28.7625C8.20625 29.3312 8.40938 29.8594 8.69375 30.3469L8.08437 32.2563 9.50625 33.6781 11.4156 33.0688C11.9031 33.3531 12.4313 33.5562 13 33.7188L13.8938 35.5063 15.925 35.5063 16.8188 33.7188C17.3875 33.5562 17.9156 33.3531 18.4031 33.0688L20.3125 33.7188 21.7344 32.2563 21.125 30.3875C21.4094 29.9 21.6125 29.3719 21.775 28.8031L23.5625 27.9094 23.5625 25.8781 21.775 24.9844C21.6125 24.4156 21.4094 23.8875 21.125 23.4Z" transform="matrix(1.02564 0 0 1 149 57)"/></g></g></g><rect x="50.5001" y="42.5001" width="1187" height="415" stroke="#000000" stroke-miterlimit="8" stroke-dasharray="8 3 1 3 1 3" fill="none"/><text font-family="Calibri,Calibri_MSFontService,sans-serif" font-weight="400" font-size="19" transform="translate(60.0115 64)">Build System<tspan font-size="13" x="0" y="18">Bazel</tspan><tspan font-size="13" x="0" y="34">Pytho</tspan><tspan font-size="13" x="31.3333" y="34">n</tspan></text><g clip-path="url(#clip4)"><g clip-path="url(#clip5)"><g clip-path="url(#clip6)"><path d="M210.812 423.15C210.608 423.354 210.346 423.413 210.083 423.296 209.821 423.179 209.675 422.946 209.675 422.683 209.675 422.421 209.85 422.158 210.083 422.071 210.346 421.954 210.608 422.013 210.812 422.217 211.075 422.45 211.075 422.888 210.812 423.15ZM231.404 403.929 229.042 406.292 227.175 405.796 226.708 403.958 229.071 401.596C227.671 401.071 226.096 401.392 224.988 402.383 223.879 403.404 223.442 404.921 223.821 406.379L208.946 421.254C208.421 421.75 208.217 422.508 208.392 423.208 208.567 423.908 209.121 424.462 209.821 424.638 210.521 424.812 211.25 424.608 211.775 424.083L226.65 409.208C228.108 409.587 229.625 409.15 230.646 408.042 231.637 406.933 231.958 405.329 231.404 403.929Z" stroke="#7030A0" stroke-width="0.291654" fill="#7030A0"/><path d="M231.288 421.254 223.762 413.729 220.729 416.763 228.021 424.054 228.283 424.317 228.312 424.288C229.158 424.9 230.325 424.783 231.054 424.054 231.783 423.296 231.871 422.129 231.288 421.254L231.288 421.254Z" stroke="#7030A0" stroke-width="0.291654" fill="#7030A0"/><path d="M212.592 404.775 212.621 404.746 211.863 403.346 209.354 401.333 208.333 402.354 210.346 404.862 211.746 405.621 211.775 405.592 217.346 411.163 218.163 410.346Z" stroke="#7030A0" stroke-width="0.291654" fill="#7030A0"/></g></g></g><text fill="#A50021" font-family="Courier New,Courier New_MSFontService,sans-serif" font-weight="400" font-size="14" transform="translate(295.822 86)">features/…<tspan fill="#7F6000" font-size="14" x="3.48334" y="82">middleware/…</tspan><tspan fill="#000000" font-size="14" x="3.48334" y="149">os</tspan><tspan fill="#000000" font-size="14" x="20.15" y="149">/…</tspan><tspan fill="#1F4E79" font-size="14" x="730.778" y="149">machin</tspan><tspan fill="#1F4E79" font-size="14" x="780.778" y="149">e</tspan><tspan fill="#1F4E79" font-size="14" x="789.111" y="149">/…/units/</tspan><tspan fill="#1F4E79" font-size="14" x="864.111" y="149">drv</tspan><tspan fill="#1F4E79" font-size="14" x="889.111" y="149">*</tspan></text><rect x="76" y="245" width="179" height="72" stroke="#000000" stroke-width="2" stroke-miterlimit="8" fill="none"/><text font-family="Calibri,Calibri_MSFontService,sans-serif" font-weight="400" font-size="15" transform="translate(86.0442 264)">Tools<tspan font-family="Arial,Arial_MSFontService,sans-serif" font-size="15" x="0" y="17">•</tspan><tspan font-size="15" x="18" y="17">clang</tspan><tspan font-family="Arial,Arial_MSFontService,sans-serif" font-size="15" x="0" y="35">•</tspan><tspan font-size="15" x="18" y="35">cppcheck</tspan><tspan fill="#7030A0" font-family="Courier New,Courier New_MSFontService,sans-serif" font-size="14" x="-14.4409" y="107">platform</tspan><tspan fill="#7030A0" font-family="Courier New,Courier New_MSFontService,sans-serif" font-size="14" x="52.2257" y="107">s</tspan><tspan fill="#7030A0" font-family="Courier New,Courier New_MSFontService,sans-serif" font-size="14" x="60.5591" y="107">/…</tspan><tspan fill="#7030A0" font-family="Courier New,Courier New_MSFontService,sans-serif" font-size="14" x="213.261" y="142">platform</tspan><tspan fill="#7030A0" font-family="Courier New,Courier New_MSFontService,sans-serif" font-size="14" x="279.928" y="142">s</tspan><tspan fill="#7030A0" font-family="Courier New,Courier New_MSFontService,sans-serif" font-size="14" x="288.261" y="142">/…/device</tspan></text><g clip-path="url(#clip7)"><g clip-path="url(#clip8)"><g clip-path="url(#clip9)"><path d="M858.958 172.142C858.179 170.262 856.025 169.392 854.146 170.171 852.588 170.812 851.671 172.462 851.9 174.067L845.987 176.542C845.346 175.442 844.2 174.617 842.917 174.387L842.917 168.017C844.475 167.604 845.667 166.183 845.667 164.488 845.667 162.471 844.017 160.821 842 160.821L842 160.821C839.983 160.821 838.333 162.471 838.333 164.488 838.333 166.183 839.525 167.604 841.083 168.017L841.083 174.342C839.754 174.571 838.654 175.396 838.013 176.496L832.1 174.021C832.329 172.417 831.458 170.767 829.854 170.125 827.975 169.346 825.821 170.217 825.042 172.096 824.263 173.975 825.133 176.129 827.013 176.908 828.571 177.55 830.358 177.046 831.321 175.717L837.371 178.192C837.325 178.375 837.325 178.604 837.325 178.788 837.325 179.796 837.646 180.758 838.242 181.538L833.475 186.35C832.054 185.525 830.221 185.708 829.029 186.9 827.608 188.321 827.608 190.658 829.029 192.079 830.45 193.5 832.787 193.5 834.208 192.079 835.4 190.887 835.583 189.054 834.758 187.633L839.617 182.775C840.304 183.188 841.083 183.417 841.908 183.417 841.954 183.417 841.954 183.417 842 183.417 842.046 183.417 842.046 183.417 842.092 183.417 842.917 183.417 843.696 183.188 844.383 182.775L849.242 187.633C848.417 189.054 848.6 190.887 849.792 192.125 851.213 193.546 853.55 193.546 854.971 192.125 856.392 190.704 856.392 188.367 854.971 186.946 853.779 185.754 851.946 185.571 850.525 186.396L845.758 181.583C846.354 180.804 846.675 179.887 846.675 178.833 846.675 178.65 846.675 178.421 846.629 178.238L852.679 175.762C853.642 177.046 855.429 177.596 856.987 176.954 858.821 176.129 859.737 174.021 858.958 172.142Z" fill="#7F6000"/></g></g></g></g></svg>